<?xml version="1.0" encoding="UTF-8" standalone="no"?>
<!DOCTYPE svg PUBLIC "-//W3C//DTD SVG 1.1//EN"
 "http://www.w3.org/Graphics/SVG/1.1/DTD/svg11.dtd">
<!-- Generated by graphviz version 11.0.0 (20240428.1522)
 -->
<!-- Title: G Pages: 1 -->
<svg width="2346pt" height="2073pt"
 viewBox="0.00 0.00 2346.00 2072.85" xmlns="http://www.w3.org/2000/svg" xmlns:xlink="http://www.w3.org/1999/xlink">
<g id="graph0" class="graph" transform="scale(1 1) rotate(0) translate(36 2036.85)">
<title>G</title>
<polygon fill="white" stroke="none" points="-36,36 -36,-2036.85 2310,-2036.85 2310,36 -36,36"/>
<text text-anchor="middle" x="1137" y="-6.45" font-family="Times New Roman,serif" font-size="14.00">Matriz Dispersa</text>
<!-- Fila2 -->
<g id="node1" class="node">
<title>Fila2</title>
<polygon fill="white" stroke="black" points="54,-1848.8 0,-1848.8 0,-1791.2 54,-1791.2 54,-1848.8"/>
<text text-anchor="middle" x="27" y="-1814.58" font-family="Times New Roman,serif" font-size="14.00">2</text>
</g>
<!-- Fila5 -->
<g id="node2" class="node">
<title>Fila5</title>
<polygon fill="white" stroke="black" points="54,-1674.3 0,-1674.3 0,-1616.7 54,-1616.7 54,-1674.3"/>
<text text-anchor="middle" x="27" y="-1640.08" font-family="Times New Roman,serif" font-size="14.00">5</text>
</g>
<!-- Fila2&#45;&gt;Fila5 -->
<g id="edge1" class="edge">
<title>Fila2&#45;&gt;Fila5</title>
<path fill="none" stroke="black" d="M27,-1779.71C27,-1751.66 27,-1714.08 27,-1685.99"/>
<polygon fill="black" stroke="black" points="23.5,-1779.39 27,-1789.39 30.5,-1779.39 23.5,-1779.39"/>
<polygon fill="black" stroke="black" points="30.5,-1686.1 27,-1676.1 23.5,-1686.1 30.5,-1686.1"/>
</g>
<!-- NodoF2_C6 -->
<g id="node31" class="node">
<title>NodoF2_C6</title>
<polygon fill="lightgrey" stroke="black" points="2021.62,-1871.25 1652.38,-1871.25 1652.38,-1768.75 2021.62,-1768.75 2021.62,-1871.25"/>
<text text-anchor="middle" x="1837" y="-1853.95" font-family="Times New Roman,serif" font-size="14.00">ID: 5</text>
<text text-anchor="middle" x="1837" y="-1838.2" font-family="Times New Roman,serif" font-size="14.00">Nombre: Inventario</text>
<text text-anchor="middle" x="1837" y="-1822.45" font-family="Times New Roman,serif" font-size="14.00">Descripción: Realizar inventario de los productos en el almacén</text>
<text text-anchor="middle" x="1837" y="-1806.7" font-family="Times New Roman,serif" font-size="14.00">Empleado: Gil Rovira Robledo</text>
<text text-anchor="middle" x="1837" y="-1790.95" font-family="Times New Roman,serif" font-size="14.00">Día: 6</text>
<text text-anchor="middle" x="1837" y="-1775.2" font-family="Times New Roman,serif" font-size="14.00">Hora: 2:00</text>
</g>
<!-- Fila2&#45;&gt;NodoF2_C6 -->
<g id="edge32" class="edge">
<title>Fila2&#45;&gt;NodoF2_C6</title>
<path fill="none" stroke="black" d="M54.4,-1820C583.17,-1820 1111.95,-1820 1640.73,-1820"/>
<polygon fill="black" stroke="black" points="1640.52,-1823.5 1650.52,-1820 1640.52,-1816.5 1640.52,-1823.5"/>
</g>
<!-- Fila6 -->
<g id="node3" class="node">
<title>Fila6</title>
<polygon fill="white" stroke="black" points="54,-1499.8 0,-1499.8 0,-1442.2 54,-1442.2 54,-1499.8"/>
<text text-anchor="middle" x="27" y="-1465.58" font-family="Times New Roman,serif" font-size="14.00">6</text>
</g>
<!-- Fila5&#45;&gt;Fila6 -->
<g id="edge2" class="edge">
<title>Fila5&#45;&gt;Fila6</title>
<path fill="none" stroke="black" d="M27,-1605.21C27,-1577.16 27,-1539.58 27,-1511.49"/>
<polygon fill="black" stroke="black" points="23.5,-1604.89 27,-1614.89 30.5,-1604.89 23.5,-1604.89"/>
<polygon fill="black" stroke="black" points="30.5,-1511.6 27,-1501.6 23.5,-1511.6 30.5,-1511.6"/>
</g>
<!-- NodoF5_C1 -->
<g id="node13" class="node">
<title>NodoF5_C1</title>
<polygon fill="lightgrey" stroke="black" points="465.25,-1696.75 132.75,-1696.75 132.75,-1594.25 465.25,-1594.25 465.25,-1696.75"/>
<text text-anchor="middle" x="299" y="-1679.45" font-family="Times New Roman,serif" font-size="14.00">ID: 3</text>
<text text-anchor="middle" x="299" y="-1663.7" font-family="Times New Roman,serif" font-size="14.00">Nombre: Asesoría al cliente</text>
<text text-anchor="middle" x="299" y="-1647.95" font-family="Times New Roman,serif" font-size="14.00">Descripción: Asesorar a los clientes sobre los productos</text>
<text text-anchor="middle" x="299" y="-1632.2" font-family="Times New Roman,serif" font-size="14.00">Empleado: Leonardo Mayoral Gonzalez</text>
<text text-anchor="middle" x="299" y="-1616.45" font-family="Times New Roman,serif" font-size="14.00">Día: 1</text>
<text text-anchor="middle" x="299" y="-1600.7" font-family="Times New Roman,serif" font-size="14.00">Hora: 5:00</text>
</g>
<!-- Fila5&#45;&gt;NodoF5_C1 -->
<g id="edge33" class="edge">
<title>Fila5&#45;&gt;NodoF5_C1</title>
<path fill="none" stroke="black" d="M54.36,-1645.5C76.7,-1645.5 99.05,-1645.5 121.4,-1645.5"/>
<polygon fill="black" stroke="black" points="121.21,-1649 131.21,-1645.5 121.21,-1642 121.21,-1649"/>
</g>
<!-- Fila11 -->
<g id="node4" class="node">
<title>Fila11</title>
<polygon fill="white" stroke="black" points="54,-1325.3 0,-1325.3 0,-1267.7 54,-1267.7 54,-1325.3"/>
<text text-anchor="middle" x="27" y="-1291.08" font-family="Times New Roman,serif" font-size="14.00">11</text>
</g>
<!-- Fila6&#45;&gt;Fila11 -->
<g id="edge3" class="edge">
<title>Fila6&#45;&gt;Fila11</title>
<path fill="none" stroke="black" d="M27,-1430.71C27,-1402.66 27,-1365.08 27,-1336.99"/>
<polygon fill="black" stroke="black" points="23.5,-1430.39 27,-1440.39 30.5,-1430.39 23.5,-1430.39"/>
<polygon fill="black" stroke="black" points="30.5,-1337.1 27,-1327.1 23.5,-1337.1 30.5,-1337.1"/>
</g>
<!-- NodoF6_C2 -->
<g id="node17" class="node">
<title>NodoF6_C2</title>
<polygon fill="lightgrey" stroke="black" points="754.38,-1522.25 407.62,-1522.25 407.62,-1419.75 754.38,-1419.75 754.38,-1522.25"/>
<text text-anchor="middle" x="581" y="-1504.95" font-family="Times New Roman,serif" font-size="14.00">ID: 11</text>
<text text-anchor="middle" x="581" y="-1489.2" font-family="Times New Roman,serif" font-size="14.00">Nombre: Recepción de mercancía</text>
<text text-anchor="middle" x="581" y="-1473.45" font-family="Times New Roman,serif" font-size="14.00">Descripción: Recepción y revisión de la mercancía entrante</text>
<text text-anchor="middle" x="581" y="-1457.7" font-family="Times New Roman,serif" font-size="14.00">Empleado: Cecilia Folch&#45;Calatayud</text>
<text text-anchor="middle" x="581" y="-1441.95" font-family="Times New Roman,serif" font-size="14.00">Día: 2</text>
<text text-anchor="middle" x="581" y="-1426.2" font-family="Times New Roman,serif" font-size="14.00">Hora: 6:00</text>
</g>
<!-- Fila6&#45;&gt;NodoF6_C2 -->
<g id="edge34" class="edge">
<title>Fila6&#45;&gt;NodoF6_C2</title>
<path fill="none" stroke="black" d="M54.32,-1471C168.14,-1471 281.96,-1471 395.78,-1471"/>
<polygon fill="black" stroke="black" points="395.64,-1474.5 405.64,-1471 395.64,-1467.5 395.64,-1474.5"/>
</g>
<!-- Fila13 -->
<g id="node5" class="node">
<title>Fila13</title>
<polygon fill="white" stroke="black" points="54,-1150.8 0,-1150.8 0,-1093.2 54,-1093.2 54,-1150.8"/>
<text text-anchor="middle" x="27" y="-1116.58" font-family="Times New Roman,serif" font-size="14.00">13</text>
</g>
<!-- Fila11&#45;&gt;Fila13 -->
<g id="edge4" class="edge">
<title>Fila11&#45;&gt;Fila13</title>
<path fill="none" stroke="black" d="M27,-1256.21C27,-1228.16 27,-1190.58 27,-1162.49"/>
<polygon fill="black" stroke="black" points="23.5,-1255.89 27,-1265.89 30.5,-1255.89 23.5,-1255.89"/>
<polygon fill="black" stroke="black" points="30.5,-1162.6 27,-1152.6 23.5,-1162.6 30.5,-1162.6"/>
</g>
<!-- NodoF11_C1 -->
<g id="node14" class="node">
<title>NodoF11_C1</title>
<polygon fill="lightgrey" stroke="black" points="451,-1347.75 147,-1347.75 147,-1245.25 451,-1245.25 451,-1347.75"/>
<text text-anchor="middle" x="299" y="-1330.45" font-family="Times New Roman,serif" font-size="14.00">ID: 12</text>
<text text-anchor="middle" x="299" y="-1314.7" font-family="Times New Roman,serif" font-size="14.00">Nombre: Organización de almacén</text>
<text text-anchor="middle" x="299" y="-1298.95" font-family="Times New Roman,serif" font-size="14.00">Descripción: Organizar los productos en el almacén</text>
<text text-anchor="middle" x="299" y="-1283.2" font-family="Times New Roman,serif" font-size="14.00">Empleado: Cloe Gallart Vega</text>
<text text-anchor="middle" x="299" y="-1267.45" font-family="Times New Roman,serif" font-size="14.00">Día: 1</text>
<text text-anchor="middle" x="299" y="-1251.7" font-family="Times New Roman,serif" font-size="14.00">Hora: 11:00</text>
</g>
<!-- Fila11&#45;&gt;NodoF11_C1 -->
<g id="edge35" class="edge">
<title>Fila11&#45;&gt;NodoF11_C1</title>
<path fill="none" stroke="black" d="M54.36,-1296.5C81.38,-1296.5 108.39,-1296.5 135.41,-1296.5"/>
<polygon fill="black" stroke="black" points="135.06,-1300 145.06,-1296.5 135.06,-1293 135.06,-1300"/>
</g>
<!-- Fila15 -->
<g id="node6" class="node">
<title>Fila15</title>
<polygon fill="white" stroke="black" points="54,-976.3 0,-976.3 0,-918.7 54,-918.7 54,-976.3"/>
<text text-anchor="middle" x="27" y="-942.08" font-family="Times New Roman,serif" font-size="14.00">15</text>
</g>
<!-- Fila13&#45;&gt;Fila15 -->
<g id="edge5" class="edge">
<title>Fila13&#45;&gt;Fila15</title>
<path fill="none" stroke="black" d="M27,-1081.71C27,-1053.66 27,-1016.08 27,-987.99"/>
<polygon fill="black" stroke="black" points="23.5,-1081.39 27,-1091.39 30.5,-1081.39 23.5,-1081.39"/>
<polygon fill="black" stroke="black" points="30.5,-988.1 27,-978.1 23.5,-988.1 30.5,-988.1"/>
</g>
<!-- NodoF13_C3 -->
<g id="node21" class="node">
<title>NodoF13_C3</title>
<polygon fill="lightgrey" stroke="black" points="1027.75,-1173.25 698.25,-1173.25 698.25,-1070.75 1027.75,-1070.75 1027.75,-1173.25"/>
<text text-anchor="middle" x="863" y="-1155.95" font-family="Times New Roman,serif" font-size="14.00">ID: 10</text>
<text text-anchor="middle" x="863" y="-1140.2" font-family="Times New Roman,serif" font-size="14.00">Nombre: Cobro en caja</text>
<text text-anchor="middle" x="863" y="-1124.45" font-family="Times New Roman,serif" font-size="14.00">Descripción: Cobrar a los clientes en la caja registradora</text>
<text text-anchor="middle" x="863" y="-1108.7" font-family="Times New Roman,serif" font-size="14.00">Empleado: Cecilia Folch&#45;Calatayud</text>
<text text-anchor="middle" x="863" y="-1092.95" font-family="Times New Roman,serif" font-size="14.00">Día: 3</text>
<text text-anchor="middle" x="863" y="-1077.2" font-family="Times New Roman,serif" font-size="14.00">Hora: 13:00</text>
</g>
<!-- Fila13&#45;&gt;NodoF13_C3 -->
<g id="edge36" class="edge">
<title>Fila13&#45;&gt;NodoF13_C3</title>
<path fill="none" stroke="black" d="M54.35,-1122C265.11,-1122 475.88,-1122 686.64,-1122"/>
<polygon fill="black" stroke="black" points="686.44,-1125.5 696.44,-1122 686.44,-1118.5 686.44,-1125.5"/>
</g>
<!-- Fila16 -->
<g id="node7" class="node">
<title>Fila16</title>
<polygon fill="white" stroke="black" points="54,-801.8 0,-801.8 0,-744.2 54,-744.2 54,-801.8"/>
<text text-anchor="middle" x="27" y="-767.58" font-family="Times New Roman,serif" font-size="14.00">16</text>
</g>
<!-- Fila15&#45;&gt;Fila16 -->
<g id="edge6" class="edge">
<title>Fila15&#45;&gt;Fila16</title>
<path fill="none" stroke="black" d="M27,-907.21C27,-879.16 27,-841.58 27,-813.49"/>
<polygon fill="black" stroke="black" points="23.5,-906.89 27,-916.89 30.5,-906.89 23.5,-906.89"/>
<polygon fill="black" stroke="black" points="30.5,-813.6 27,-803.6 23.5,-813.6 30.5,-813.6"/>
</g>
<!-- NodoF15_C3 -->
<g id="node22" class="node">
<title>NodoF15_C3</title>
<polygon fill="lightgrey" stroke="black" points="1007.88,-998.75 718.12,-998.75 718.12,-896.25 1007.88,-896.25 1007.88,-998.75"/>
<text text-anchor="middle" x="863" y="-981.45" font-family="Times New Roman,serif" font-size="14.00">ID: 7</text>
<text text-anchor="middle" x="863" y="-965.7" font-family="Times New Roman,serif" font-size="14.00">Nombre: Atención al Cliente</text>
<text text-anchor="middle" x="863" y="-949.95" font-family="Times New Roman,serif" font-size="14.00">Descripción: Atender a los clientes de la tienda</text>
<text text-anchor="middle" x="863" y="-934.2" font-family="Times New Roman,serif" font-size="14.00">Empleado: Juan Bautista Pascual Arellano Conde</text>
<text text-anchor="middle" x="863" y="-918.45" font-family="Times New Roman,serif" font-size="14.00">Día: 3</text>
<text text-anchor="middle" x="863" y="-902.7" font-family="Times New Roman,serif" font-size="14.00">Hora: 15:00</text>
</g>
<!-- Fila15&#45;&gt;NodoF15_C3 -->
<g id="edge37" class="edge">
<title>Fila15&#45;&gt;NodoF15_C3</title>
<path fill="none" stroke="black" d="M54.35,-947.5C271.69,-947.5 489.02,-947.5 706.36,-947.5"/>
<polygon fill="black" stroke="black" points="706.18,-951 716.18,-947.5 706.18,-944 706.18,-951"/>
</g>
<!-- Fila18 -->
<g id="node8" class="node">
<title>Fila18</title>
<polygon fill="white" stroke="black" points="54,-627.3 0,-627.3 0,-569.7 54,-569.7 54,-627.3"/>
<text text-anchor="middle" x="27" y="-593.08" font-family="Times New Roman,serif" font-size="14.00">18</text>
</g>
<!-- Fila16&#45;&gt;Fila18 -->
<g id="edge7" class="edge">
<title>Fila16&#45;&gt;Fila18</title>
<path fill="none" stroke="black" d="M27,-732.71C27,-704.66 27,-667.08 27,-638.99"/>
<polygon fill="black" stroke="black" points="23.5,-732.39 27,-742.39 30.5,-732.39 23.5,-732.39"/>
<polygon fill="black" stroke="black" points="30.5,-639.1 27,-629.1 23.5,-639.1 30.5,-639.1"/>
</g>
<!-- NodoF16_C2 -->
<g id="node18" class="node">
<title>NodoF16_C2</title>
<polygon fill="lightgrey" stroke="black" points="724,-824.25 438,-824.25 438,-721.75 724,-721.75 724,-824.25"/>
<text text-anchor="middle" x="581" y="-806.95" font-family="Times New Roman,serif" font-size="14.00">ID: 14</text>
<text text-anchor="middle" x="581" y="-791.2" font-family="Times New Roman,serif" font-size="14.00">Nombre: Preparación de pedidos</text>
<text text-anchor="middle" x="581" y="-775.45" font-family="Times New Roman,serif" font-size="14.00">Descripción: Preparar los pedidos para su envío</text>
<text text-anchor="middle" x="581" y="-759.7" font-family="Times New Roman,serif" font-size="14.00">Empleado: Mar Herrera Díez</text>
<text text-anchor="middle" x="581" y="-743.95" font-family="Times New Roman,serif" font-size="14.00">Día: 2</text>
<text text-anchor="middle" x="581" y="-728.2" font-family="Times New Roman,serif" font-size="14.00">Hora: 16:00</text>
</g>
<!-- Fila16&#45;&gt;NodoF16_C2 -->
<g id="edge38" class="edge">
<title>Fila16&#45;&gt;NodoF16_C2</title>
<path fill="none" stroke="black" d="M54.32,-773C178.31,-773 302.29,-773 426.27,-773"/>
<polygon fill="black" stroke="black" points="425.99,-776.5 435.99,-773 425.99,-769.5 425.99,-776.5"/>
</g>
<!-- Fila20 -->
<g id="node9" class="node">
<title>Fila20</title>
<polygon fill="white" stroke="black" points="54,-452.8 0,-452.8 0,-395.2 54,-395.2 54,-452.8"/>
<text text-anchor="middle" x="27" y="-418.57" font-family="Times New Roman,serif" font-size="14.00">20</text>
</g>
<!-- Fila18&#45;&gt;Fila20 -->
<g id="edge8" class="edge">
<title>Fila18&#45;&gt;Fila20</title>
<path fill="none" stroke="black" d="M27,-558.21C27,-530.16 27,-492.58 27,-464.49"/>
<polygon fill="black" stroke="black" points="23.5,-557.89 27,-567.89 30.5,-557.89 23.5,-557.89"/>
<polygon fill="black" stroke="black" points="30.5,-464.6 27,-454.6 23.5,-464.6 30.5,-464.6"/>
</g>
<!-- NodoF18_C2 -->
<g id="node19" class="node">
<title>NodoF18_C2</title>
<polygon fill="lightgrey" stroke="black" points="719.12,-649.75 442.88,-649.75 442.88,-547.25 719.12,-547.25 719.12,-649.75"/>
<text text-anchor="middle" x="581" y="-632.45" font-family="Times New Roman,serif" font-size="14.00">ID: 13</text>
<text text-anchor="middle" x="581" y="-616.7" font-family="Times New Roman,serif" font-size="14.00">Nombre: Atención al Cliente</text>
<text text-anchor="middle" x="581" y="-600.95" font-family="Times New Roman,serif" font-size="14.00">Descripción: Atender a los clientes de la tienda</text>
<text text-anchor="middle" x="581" y="-585.2" font-family="Times New Roman,serif" font-size="14.00">Empleado: Dionisia Cazorla Pomares</text>
<text text-anchor="middle" x="581" y="-569.45" font-family="Times New Roman,serif" font-size="14.00">Día: 2</text>
<text text-anchor="middle" x="581" y="-553.7" font-family="Times New Roman,serif" font-size="14.00">Hora: 18:00</text>
</g>
<!-- Fila18&#45;&gt;NodoF18_C2 -->
<g id="edge40" class="edge">
<title>Fila18&#45;&gt;NodoF18_C2</title>
<path fill="none" stroke="black" d="M54.32,-598.5C179.89,-598.5 305.45,-598.5 431.02,-598.5"/>
<polygon fill="black" stroke="black" points="430.87,-602 440.87,-598.5 430.87,-595 430.87,-602"/>
</g>
<!-- Fila22 -->
<g id="node10" class="node">
<title>Fila22</title>
<polygon fill="white" stroke="black" points="54,-278.3 0,-278.3 0,-220.7 54,-220.7 54,-278.3"/>
<text text-anchor="middle" x="27" y="-244.07" font-family="Times New Roman,serif" font-size="14.00">22</text>
</g>
<!-- Fila20&#45;&gt;Fila22 -->
<g id="edge9" class="edge">
<title>Fila20&#45;&gt;Fila22</title>
<path fill="none" stroke="black" d="M27,-383.71C27,-355.66 27,-318.08 27,-289.99"/>
<polygon fill="black" stroke="black" points="23.5,-383.39 27,-393.39 30.5,-383.39 23.5,-383.39"/>
<polygon fill="black" stroke="black" points="30.5,-290.1 27,-280.1 23.5,-290.1 30.5,-290.1"/>
</g>
<!-- NodoF20_C4 -->
<g id="node25" class="node">
<title>NodoF20_C4</title>
<polygon fill="lightgrey" stroke="black" points="1415.25,-475.25 1082.75,-475.25 1082.75,-372.75 1415.25,-372.75 1415.25,-475.25"/>
<text text-anchor="middle" x="1249" y="-457.95" font-family="Times New Roman,serif" font-size="14.00">ID: 2</text>
<text text-anchor="middle" x="1249" y="-442.2" font-family="Times New Roman,serif" font-size="14.00">Nombre: Asesoría al cliente</text>
<text text-anchor="middle" x="1249" y="-426.45" font-family="Times New Roman,serif" font-size="14.00">Descripción: Asesorar a los clientes sobre los productos</text>
<text text-anchor="middle" x="1249" y="-410.7" font-family="Times New Roman,serif" font-size="14.00">Empleado: Clímaco Flor Mariscal</text>
<text text-anchor="middle" x="1249" y="-394.95" font-family="Times New Roman,serif" font-size="14.00">Día: 4</text>
<text text-anchor="middle" x="1249" y="-379.2" font-family="Times New Roman,serif" font-size="14.00">Hora: 20:00</text>
</g>
<!-- Fila20&#45;&gt;NodoF20_C4 -->
<g id="edge41" class="edge">
<title>Fila20&#45;&gt;NodoF20_C4</title>
<path fill="none" stroke="black" d="M54.45,-424C393.36,-424 732.27,-424 1071.18,-424"/>
<polygon fill="black" stroke="black" points="1070.96,-427.5 1080.96,-424 1070.96,-420.5 1070.96,-427.5"/>
</g>
<!-- Fila23 -->
<g id="node11" class="node">
<title>Fila23</title>
<polygon fill="white" stroke="black" points="54,-103.8 0,-103.8 0,-46.2 54,-46.2 54,-103.8"/>
<text text-anchor="middle" x="27" y="-69.58" font-family="Times New Roman,serif" font-size="14.00">23</text>
</g>
<!-- Fila22&#45;&gt;Fila23 -->
<g id="edge10" class="edge">
<title>Fila22&#45;&gt;Fila23</title>
<path fill="none" stroke="black" d="M27,-209.21C27,-181.16 27,-143.58 27,-115.49"/>
<polygon fill="black" stroke="black" points="23.5,-208.89 27,-218.89 30.5,-208.89 23.5,-208.89"/>
<polygon fill="black" stroke="black" points="30.5,-115.6 27,-105.6 23.5,-115.6 30.5,-115.6"/>
</g>
<!-- NodoF22_C1 -->
<g id="node15" class="node">
<title>NodoF22_C1</title>
<polygon fill="lightgrey" stroke="black" points="472.38,-300.75 125.62,-300.75 125.62,-198.25 472.38,-198.25 472.38,-300.75"/>
<text text-anchor="middle" x="299" y="-283.45" font-family="Times New Roman,serif" font-size="14.00">ID: 4</text>
<text text-anchor="middle" x="299" y="-267.7" font-family="Times New Roman,serif" font-size="14.00">Nombre: Recepción de mercancía</text>
<text text-anchor="middle" x="299" y="-251.95" font-family="Times New Roman,serif" font-size="14.00">Descripción: Recepción y revisión de la mercancía entrante</text>
<text text-anchor="middle" x="299" y="-236.2" font-family="Times New Roman,serif" font-size="14.00">Empleado: Marcio Adadia</text>
<text text-anchor="middle" x="299" y="-220.45" font-family="Times New Roman,serif" font-size="14.00">Día: 1</text>
<text text-anchor="middle" x="299" y="-204.7" font-family="Times New Roman,serif" font-size="14.00">Hora: 22:00</text>
</g>
<!-- Fila22&#45;&gt;NodoF22_C1 -->
<g id="edge42" class="edge">
<title>Fila22&#45;&gt;NodoF22_C1</title>
<path fill="none" stroke="black" d="M54.36,-249.5C74.29,-249.5 94.22,-249.5 114.15,-249.5"/>
<polygon fill="black" stroke="black" points="114.04,-253 124.04,-249.5 114.04,-246 114.04,-253"/>
</g>
<!-- NodoF23_C4 -->
<g id="node27" class="node">
<title>NodoF23_C4</title>
<polygon fill="lightgrey" stroke="black" points="1422.38,-126.25 1075.62,-126.25 1075.62,-23.75 1422.38,-23.75 1422.38,-126.25"/>
<text text-anchor="middle" x="1249" y="-108.95" font-family="Times New Roman,serif" font-size="14.00">ID: 1</text>
<text text-anchor="middle" x="1249" y="-93.2" font-family="Times New Roman,serif" font-size="14.00">Nombre: Recepción de mercancía</text>
<text text-anchor="middle" x="1249" y="-77.45" font-family="Times New Roman,serif" font-size="14.00">Descripción: Recepción y revisión de la mercancía entrante</text>
<text text-anchor="middle" x="1249" y="-61.7" font-family="Times New Roman,serif" font-size="14.00">Empleado: Cecilia Folch&#45;Calatayud</text>
<text text-anchor="middle" x="1249" y="-45.95" font-family="Times New Roman,serif" font-size="14.00">Día: 4</text>
<text text-anchor="middle" x="1249" y="-30.2" font-family="Times New Roman,serif" font-size="14.00">Hora: 23:00</text>
</g>
<!-- Fila23&#45;&gt;NodoF23_C4 -->
<g id="edge46" class="edge">
<title>Fila23&#45;&gt;NodoF23_C4</title>
<path fill="none" stroke="black" d="M54.45,-75C390.87,-75 727.3,-75 1063.72,-75"/>
<polygon fill="black" stroke="black" points="1063.67,-78.5 1073.67,-75 1063.67,-71.5 1063.67,-78.5"/>
</g>
<!-- Columna1 -->
<g id="node12" class="node">
<title>Columna1</title>
<polygon fill="white" stroke="black" points="326,-2000.85 272,-2000.85 272,-1943.25 326,-1943.25 326,-2000.85"/>
<text text-anchor="middle" x="299" y="-1966.62" font-family="Times New Roman,serif" font-size="14.00">1</text>
</g>
<!-- Columna1&#45;&gt;NodoF5_C1 -->
<g id="edge11" class="edge">
<title>Columna1&#45;&gt;NodoF5_C1</title>
<path fill="none" stroke="black" d="M299,-1942.82C299,-1890.81 299,-1778.76 299,-1708.33"/>
<polygon fill="black" stroke="black" points="302.5,-1708.49 299,-1698.49 295.5,-1708.49 302.5,-1708.49"/>
</g>
<!-- Columna2 -->
<g id="node16" class="node">
<title>Columna2</title>
<polygon fill="white" stroke="black" points="608,-2000.85 554,-2000.85 554,-1943.25 608,-1943.25 608,-2000.85"/>
<text text-anchor="middle" x="581" y="-1966.62" font-family="Times New Roman,serif" font-size="14.00">2</text>
</g>
<!-- Columna1&#45;&gt;Columna2 -->
<g id="edge26" class="edge">
<title>Columna1&#45;&gt;Columna2</title>
<path fill="none" stroke="black" d="M337.37,-1972.05C405.65,-1972.05 473.94,-1972.05 542.23,-1972.05"/>
<polygon fill="black" stroke="black" points="337.78,-1968.55 327.78,-1972.05 337.78,-1975.55 337.78,-1968.55"/>
<polygon fill="black" stroke="black" points="542.12,-1975.55 552.12,-1972.05 542.12,-1968.55 542.12,-1975.55"/>
</g>
<!-- NodoF5_C1&#45;&gt;NodoF11_C1 -->
<g id="edge12" class="edge">
<title>NodoF5_C1&#45;&gt;NodoF11_C1</title>
<path fill="none" stroke="black" d="M299,-1582.83C299,-1519.81 299,-1422.48 299,-1359.39"/>
<polygon fill="black" stroke="black" points="295.5,-1582.53 299,-1592.53 302.5,-1582.53 295.5,-1582.53"/>
<polygon fill="black" stroke="black" points="302.5,-1359.53 299,-1349.53 295.5,-1359.53 302.5,-1359.53"/>
</g>
<!-- NodoF11_C1&#45;&gt;NodoF22_C1 -->
<g id="edge13" class="edge">
<title>NodoF11_C1&#45;&gt;NodoF22_C1</title>
<path fill="none" stroke="black" d="M299,-1233.79C299,-1164.4 299,-1048.37 299,-948.5 299,-948.5 299,-948.5 299,-597.5 299,-497.63 299,-381.6 299,-312.21"/>
<polygon fill="black" stroke="black" points="295.5,-1233.42 299,-1243.42 302.5,-1233.42 295.5,-1233.42"/>
<polygon fill="black" stroke="black" points="302.5,-312.58 299,-302.58 295.5,-312.58 302.5,-312.58"/>
</g>
<!-- NodoF22_C3 -->
<g id="node23" class="node">
<title>NodoF22_C3</title>
<polygon fill="lightgrey" stroke="black" points="1006,-300.75 720,-300.75 720,-198.25 1006,-198.25 1006,-300.75"/>
<text text-anchor="middle" x="863" y="-283.45" font-family="Times New Roman,serif" font-size="14.00">ID: 6</text>
<text text-anchor="middle" x="863" y="-267.7" font-family="Times New Roman,serif" font-size="14.00">Nombre: Preparación de pedidos</text>
<text text-anchor="middle" x="863" y="-251.95" font-family="Times New Roman,serif" font-size="14.00">Descripción: Preparar los pedidos para su envío</text>
<text text-anchor="middle" x="863" y="-236.2" font-family="Times New Roman,serif" font-size="14.00">Empleado: Arsenio del Narváez</text>
<text text-anchor="middle" x="863" y="-220.45" font-family="Times New Roman,serif" font-size="14.00">Día: 3</text>
<text text-anchor="middle" x="863" y="-204.7" font-family="Times New Roman,serif" font-size="14.00">Hora: 22:00</text>
</g>
<!-- NodoF22_C1&#45;&gt;NodoF22_C3 -->
<g id="edge43" class="edge">
<title>NodoF22_C1&#45;&gt;NodoF22_C3</title>
<path fill="none" stroke="black" d="M483.86,-249.5C558.8,-249.5 633.73,-249.5 708.66,-249.5"/>
<polygon fill="black" stroke="black" points="484.29,-246 474.29,-249.5 484.28,-253 484.29,-246"/>
<polygon fill="black" stroke="black" points="708.2,-253 718.2,-249.5 708.2,-246 708.2,-253"/>
</g>
<!-- Columna2&#45;&gt;NodoF6_C2 -->
<g id="edge14" class="edge">
<title>Columna2&#45;&gt;NodoF6_C2</title>
<path fill="none" stroke="black" d="M581,-1942.79C581,-1864.41 581,-1642.88 581,-1533.99"/>
<polygon fill="black" stroke="black" points="584.5,-1534.06 581,-1524.06 577.5,-1534.06 584.5,-1534.06"/>
</g>
<!-- Columna3 -->
<g id="node20" class="node">
<title>Columna3</title>
<polygon fill="white" stroke="black" points="890,-2000.85 836,-2000.85 836,-1943.25 890,-1943.25 890,-2000.85"/>
<text text-anchor="middle" x="863" y="-1966.62" font-family="Times New Roman,serif" font-size="14.00">3</text>
</g>
<!-- Columna2&#45;&gt;Columna3 -->
<g id="edge27" class="edge">
<title>Columna2&#45;&gt;Columna3</title>
<path fill="none" stroke="black" d="M619.37,-1972.05C687.65,-1972.05 755.94,-1972.05 824.23,-1972.05"/>
<polygon fill="black" stroke="black" points="619.78,-1968.55 609.78,-1972.05 619.78,-1975.55 619.78,-1968.55"/>
<polygon fill="black" stroke="black" points="824.12,-1975.55 834.12,-1972.05 824.12,-1968.55 824.12,-1975.55"/>
</g>
<!-- NodoF6_C2&#45;&gt;NodoF16_C2 -->
<g id="edge15" class="edge">
<title>NodoF6_C2&#45;&gt;NodoF16_C2</title>
<path fill="none" stroke="black" d="M581,-1407.97C581,-1275.83 581,-967.9 581,-835.89"/>
<polygon fill="black" stroke="black" points="577.5,-1407.87 581,-1417.87 584.5,-1407.87 577.5,-1407.87"/>
<polygon fill="black" stroke="black" points="584.5,-835.94 581,-825.94 577.5,-835.94 584.5,-835.94"/>
</g>
<!-- NodoF16_C2&#45;&gt;NodoF18_C2 -->
<g id="edge16" class="edge">
<title>NodoF16_C2&#45;&gt;NodoF18_C2</title>
<path fill="none" stroke="black" d="M581,-710.3C581,-694.45 581,-677.39 581,-661.53"/>
<polygon fill="black" stroke="black" points="577.5,-710.13 581,-720.13 584.5,-710.13 577.5,-710.13"/>
<polygon fill="black" stroke="black" points="584.5,-661.73 581,-651.73 577.5,-661.73 584.5,-661.73"/>
</g>
<!-- NodoF16_C5 -->
<g id="node29" class="node">
<title>NodoF16_C5</title>
<polygon fill="lightgrey" stroke="black" points="1727.62,-824.25 1358.38,-824.25 1358.38,-721.75 1727.62,-721.75 1727.62,-824.25"/>
<text text-anchor="middle" x="1543" y="-806.95" font-family="Times New Roman,serif" font-size="14.00">ID: 8</text>
<text text-anchor="middle" x="1543" y="-791.2" font-family="Times New Roman,serif" font-size="14.00">Nombre: Inventario</text>
<text text-anchor="middle" x="1543" y="-775.45" font-family="Times New Roman,serif" font-size="14.00">Descripción: Realizar inventario de los productos en el almacén</text>
<text text-anchor="middle" x="1543" y="-759.7" font-family="Times New Roman,serif" font-size="14.00">Empleado: Carlos Onofre Palmer Pagès</text>
<text text-anchor="middle" x="1543" y="-743.95" font-family="Times New Roman,serif" font-size="14.00">Día: 5</text>
<text text-anchor="middle" x="1543" y="-728.2" font-family="Times New Roman,serif" font-size="14.00">Hora: 16:00</text>
</g>
<!-- NodoF16_C2&#45;&gt;NodoF16_C5 -->
<g id="edge39" class="edge">
<title>NodoF16_C2&#45;&gt;NodoF16_C5</title>
<path fill="none" stroke="black" d="M735.71,-773C939.36,-773 1143.01,-773 1346.66,-773"/>
<polygon fill="black" stroke="black" points="735.78,-769.5 725.78,-773 735.78,-776.5 735.78,-769.5"/>
<polygon fill="black" stroke="black" points="1346.39,-776.5 1356.39,-773 1346.39,-769.5 1346.39,-776.5"/>
</g>
<!-- Columna3&#45;&gt;NodoF13_C3 -->
<g id="edge17" class="edge">
<title>Columna3&#45;&gt;NodoF13_C3</title>
<path fill="none" stroke="black" d="M863,-1942.83C863,-1886.5 863,-1756.09 863,-1646.5 863,-1646.5 863,-1646.5 863,-1470 863,-1370.13 863,-1254.1 863,-1184.71"/>
<polygon fill="black" stroke="black" points="866.5,-1185.08 863,-1175.08 859.5,-1185.08 866.5,-1185.08"/>
</g>
<!-- Columna4 -->
<g id="node24" class="node">
<title>Columna4</title>
<polygon fill="white" stroke="black" points="1276,-2000.85 1222,-2000.85 1222,-1943.25 1276,-1943.25 1276,-2000.85"/>
<text text-anchor="middle" x="1249" y="-1966.62" font-family="Times New Roman,serif" font-size="14.00">4</text>
</g>
<!-- Columna3&#45;&gt;Columna4 -->
<g id="edge28" class="edge">
<title>Columna3&#45;&gt;Columna4</title>
<path fill="none" stroke="black" d="M901.47,-1972.05C1004.45,-1972.05 1107.43,-1972.05 1210.41,-1972.05"/>
<polygon fill="black" stroke="black" points="901.65,-1968.55 891.65,-1972.05 901.65,-1975.55 901.65,-1968.55"/>
<polygon fill="black" stroke="black" points="1210.15,-1975.55 1220.15,-1972.05 1210.15,-1968.55 1210.15,-1975.55"/>
</g>
<!-- NodoF13_C3&#45;&gt;NodoF15_C3 -->
<g id="edge18" class="edge">
<title>NodoF13_C3&#45;&gt;NodoF15_C3</title>
<path fill="none" stroke="black" d="M863,-1059.3C863,-1043.45 863,-1026.39 863,-1010.53"/>
<polygon fill="black" stroke="black" points="859.5,-1059.13 863,-1069.13 866.5,-1059.13 859.5,-1059.13"/>
<polygon fill="black" stroke="black" points="866.5,-1010.73 863,-1000.73 859.5,-1010.73 866.5,-1010.73"/>
</g>
<!-- NodoF15_C3&#45;&gt;NodoF22_C3 -->
<g id="edge19" class="edge">
<title>NodoF15_C3&#45;&gt;NodoF22_C3</title>
<path fill="none" stroke="black" d="M863,-884.47C863,-752.33 863,-444.4 863,-312.39"/>
<polygon fill="black" stroke="black" points="859.5,-884.37 863,-894.37 866.5,-884.37 859.5,-884.37"/>
<polygon fill="black" stroke="black" points="866.5,-312.44 863,-302.44 859.5,-312.44 866.5,-312.44"/>
</g>
<!-- NodoF22_C4 -->
<g id="node26" class="node">
<title>NodoF22_C4</title>
<polygon fill="lightgrey" stroke="black" points="1420.12,-300.75 1077.88,-300.75 1077.88,-198.25 1420.12,-198.25 1420.12,-300.75"/>
<text text-anchor="middle" x="1249" y="-283.45" font-family="Times New Roman,serif" font-size="14.00">ID: 9</text>
<text text-anchor="middle" x="1249" y="-267.7" font-family="Times New Roman,serif" font-size="14.00">Nombre: Limpieza de estanterías</text>
<text text-anchor="middle" x="1249" y="-251.95" font-family="Times New Roman,serif" font-size="14.00">Descripción: Limpiar y ordenar las estanterías del pasillo 1</text>
<text text-anchor="middle" x="1249" y="-236.2" font-family="Times New Roman,serif" font-size="14.00">Empleado: Marcio Adadia</text>
<text text-anchor="middle" x="1249" y="-220.45" font-family="Times New Roman,serif" font-size="14.00">Día: 4</text>
<text text-anchor="middle" x="1249" y="-204.7" font-family="Times New Roman,serif" font-size="14.00">Hora: 22:00</text>
</g>
<!-- NodoF22_C3&#45;&gt;NodoF22_C4 -->
<g id="edge44" class="edge">
<title>NodoF22_C3&#45;&gt;NodoF22_C4</title>
<path fill="none" stroke="black" d="M1017.71,-249.5C1033.99,-249.5 1050.28,-249.5 1066.56,-249.5"/>
<polygon fill="black" stroke="black" points="1017.76,-246 1007.76,-249.5 1017.76,-253 1017.76,-246"/>
<polygon fill="black" stroke="black" points="1066.32,-253 1076.32,-249.5 1066.32,-246 1066.32,-253"/>
</g>
<!-- Columna4&#45;&gt;NodoF20_C4 -->
<g id="edge20" class="edge">
<title>Columna4&#45;&gt;NodoF20_C4</title>
<path fill="none" stroke="black" d="M1249,-1942.83C1249,-1886.5 1249,-1756.09 1249,-1646.5 1249,-1646.5 1249,-1646.5 1249,-772 1249,-672.13 1249,-556.1 1249,-486.71"/>
<polygon fill="black" stroke="black" points="1252.5,-487.08 1249,-477.08 1245.5,-487.08 1252.5,-487.08"/>
</g>
<!-- Columna5 -->
<g id="node28" class="node">
<title>Columna5</title>
<polygon fill="white" stroke="black" points="1570,-2000.85 1516,-2000.85 1516,-1943.25 1570,-1943.25 1570,-2000.85"/>
<text text-anchor="middle" x="1543" y="-1966.62" font-family="Times New Roman,serif" font-size="14.00">5</text>
</g>
<!-- Columna4&#45;&gt;Columna5 -->
<g id="edge29" class="edge">
<title>Columna4&#45;&gt;Columna5</title>
<path fill="none" stroke="black" d="M1287.5,-1972.05C1359.83,-1972.05 1432.17,-1972.05 1504.51,-1972.05"/>
<polygon fill="black" stroke="black" points="1287.79,-1968.55 1277.79,-1972.05 1287.79,-1975.55 1287.79,-1968.55"/>
<polygon fill="black" stroke="black" points="1504.14,-1975.55 1514.14,-1972.05 1504.14,-1968.55 1504.14,-1975.55"/>
</g>
<!-- NodoF20_C4&#45;&gt;NodoF22_C4 -->
<g id="edge21" class="edge">
<title>NodoF20_C4&#45;&gt;NodoF22_C4</title>
<path fill="none" stroke="black" d="M1249,-361.3C1249,-345.45 1249,-328.39 1249,-312.53"/>
<polygon fill="black" stroke="black" points="1245.5,-361.13 1249,-371.13 1252.5,-361.13 1245.5,-361.13"/>
<polygon fill="black" stroke="black" points="1252.5,-312.73 1249,-302.73 1245.5,-312.73 1252.5,-312.73"/>
</g>
<!-- NodoF22_C4&#45;&gt;NodoF23_C4 -->
<g id="edge22" class="edge">
<title>NodoF22_C4&#45;&gt;NodoF23_C4</title>
<path fill="none" stroke="black" d="M1249,-186.8C1249,-170.95 1249,-153.89 1249,-138.03"/>
<polygon fill="black" stroke="black" points="1245.5,-186.63 1249,-196.63 1252.5,-186.63 1245.5,-186.63"/>
<polygon fill="black" stroke="black" points="1252.5,-138.23 1249,-128.23 1245.5,-138.23 1252.5,-138.23"/>
</g>
<!-- NodoF22_C7 -->
<g id="node33" class="node">
<title>NodoF22_C7</title>
<polygon fill="lightgrey" stroke="black" points="2274,-300.75 1988,-300.75 1988,-198.25 2274,-198.25 2274,-300.75"/>
<text text-anchor="middle" x="2131" y="-283.45" font-family="Times New Roman,serif" font-size="14.00">ID: 15</text>
<text text-anchor="middle" x="2131" y="-267.7" font-family="Times New Roman,serif" font-size="14.00">Nombre: Preparación de pedidos</text>
<text text-anchor="middle" x="2131" y="-251.95" font-family="Times New Roman,serif" font-size="14.00">Descripción: Preparar los pedidos para su envío</text>
<text text-anchor="middle" x="2131" y="-236.2" font-family="Times New Roman,serif" font-size="14.00">Empleado: Clímaco Flor Mariscal</text>
<text text-anchor="middle" x="2131" y="-220.45" font-family="Times New Roman,serif" font-size="14.00">Día: 7</text>
<text text-anchor="middle" x="2131" y="-204.7" font-family="Times New Roman,serif" font-size="14.00">Hora: 22:00</text>
</g>
<!-- NodoF22_C4&#45;&gt;NodoF22_C7 -->
<g id="edge45" class="edge">
<title>NodoF22_C4&#45;&gt;NodoF22_C7</title>
<path fill="none" stroke="black" d="M1431.76,-249.5C1613.27,-249.5 1794.79,-249.5 1976.3,-249.5"/>
<polygon fill="black" stroke="black" points="1431.92,-246 1421.92,-249.5 1431.92,-253 1431.92,-246"/>
<polygon fill="black" stroke="black" points="1976.19,-253 1986.19,-249.5 1976.19,-246 1976.19,-253"/>
</g>
<!-- Columna5&#45;&gt;NodoF16_C5 -->
<g id="edge23" class="edge">
<title>Columna5&#45;&gt;NodoF16_C5</title>
<path fill="none" stroke="black" d="M1543,-1942.83C1543,-1886.5 1543,-1756.09 1543,-1646.5 1543,-1646.5 1543,-1646.5 1543,-1121 1543,-1021.13 1543,-905.1 1543,-835.71"/>
<polygon fill="black" stroke="black" points="1546.5,-836.08 1543,-826.08 1539.5,-836.08 1546.5,-836.08"/>
</g>
<!-- Columna6 -->
<g id="node30" class="node">
<title>Columna6</title>
<polygon fill="white" stroke="black" points="1864,-2000.85 1810,-2000.85 1810,-1943.25 1864,-1943.25 1864,-2000.85"/>
<text text-anchor="middle" x="1837" y="-1966.62" font-family="Times New Roman,serif" font-size="14.00">6</text>
</g>
<!-- Columna5&#45;&gt;Columna6 -->
<g id="edge30" class="edge">
<title>Columna5&#45;&gt;Columna6</title>
<path fill="none" stroke="black" d="M1581.5,-1972.05C1653.83,-1972.05 1726.17,-1972.05 1798.51,-1972.05"/>
<polygon fill="black" stroke="black" points="1581.79,-1968.55 1571.79,-1972.05 1581.79,-1975.55 1581.79,-1968.55"/>
<polygon fill="black" stroke="black" points="1798.14,-1975.55 1808.14,-1972.05 1798.14,-1968.55 1798.14,-1975.55"/>
</g>
<!-- Columna6&#45;&gt;NodoF2_C6 -->
<g id="edge24" class="edge">
<title>Columna6&#45;&gt;NodoF2_C6</title>
<path fill="none" stroke="black" d="M1837,-1942.83C1837,-1925.92 1837,-1903.74 1837,-1882.94"/>
<polygon fill="black" stroke="black" points="1840.5,-1883.08 1837,-1873.08 1833.5,-1883.08 1840.5,-1883.08"/>
</g>
<!-- Columna7 -->
<g id="node32" class="node">
<title>Columna7</title>
<polygon fill="white" stroke="black" points="2158,-2000.85 2104,-2000.85 2104,-1943.25 2158,-1943.25 2158,-2000.85"/>
<text text-anchor="middle" x="2131" y="-1966.62" font-family="Times New Roman,serif" font-size="14.00">7</text>
</g>
<!-- Columna6&#45;&gt;Columna7 -->
<g id="edge31" class="edge">
<title>Columna6&#45;&gt;Columna7</title>
<path fill="none" stroke="black" d="M1875.5,-1972.05C1947.83,-1972.05 2020.17,-1972.05 2092.51,-1972.05"/>
<polygon fill="black" stroke="black" points="1875.79,-1968.55 1865.79,-1972.05 1875.79,-1975.55 1875.79,-1968.55"/>
<polygon fill="black" stroke="black" points="2092.14,-1975.55 2102.14,-1972.05 2092.14,-1968.55 2092.14,-1975.55"/>
</g>
<!-- Columna7&#45;&gt;NodoF22_C7 -->
<g id="edge25" class="edge">
<title>Columna7&#45;&gt;NodoF22_C7</title>
<path fill="none" stroke="black" d="M2131,-1942.83C2131,-1886.5 2131,-1756.09 2131,-1646.5 2131,-1646.5 2131,-1646.5 2131,-597.5 2131,-497.63 2131,-381.6 2131,-312.21"/>
<polygon fill="black" stroke="black" points="2134.5,-312.58 2131,-302.58 2127.5,-312.58 2134.5,-312.58"/>
</g>
</g>
</svg>
