<?xml version="1.0" encoding="UTF-8" standalone="no"?>
<!DOCTYPE svg PUBLIC "-//W3C//DTD SVG 1.1//EN"
 "http://www.w3.org/Graphics/SVG/1.1/DTD/svg11.dtd">
<!-- Generated by graphviz version 11.0.0 (20240428.1522)
 -->
<!-- Title: G Pages: 1 -->
<svg width="135pt" height="143pt"
 viewBox="0.00 0.00 135.00 143.25" xmlns="http://www.w3.org/2000/svg" xmlns:xlink="http://www.w3.org/1999/xlink">
<g id="graph0" class="graph" transform="scale(1 1) rotate(0) translate(4 139.25)">
<title>G</title>
<polygon fill="white" stroke="none" points="-4,4 -4,-139.25 131,-139.25 131,4 -4,4"/>
<!-- Nodo -->
<g id="node1" class="node">
<title>Nodo</title>
<path fill="none" stroke="black" d="M32.25,-16.25C32.25,-16.25 115,-16.25 115,-16.25 121,-16.25 127,-22.25 127,-28.25 127,-28.25 127,-122.75 127,-122.75 127,-128.75 121,-134.75 115,-134.75 115,-134.75 32.25,-134.75 32.25,-134.75 26.25,-134.75 20.25,-128.75 20.25,-122.75 20.25,-122.75 20.25,-28.25 20.25,-28.25 20.25,-22.25 26.25,-16.25 32.25,-16.25"/>
<text text-anchor="middle" x="73.62" y="-117.45" font-family="Times New Roman,serif" font-size="14.00">Nombre: Pan</text>
<text text-anchor="middle" x="73.62" y="-101.7" font-family="Times New Roman,serif" font-size="14.00">Cantidad: 2</text>
<polyline fill="none" stroke="black" points="20.25,-95.25 127,-95.25"/>
<text text-anchor="middle" x="73.62" y="-77.95" font-family="Times New Roman,serif" font-size="14.00">Nombre: Espejo</text>
<text text-anchor="middle" x="73.62" y="-62.2" font-family="Times New Roman,serif" font-size="14.00">Cantidad: 1</text>
<polyline fill="none" stroke="black" points="20.25,-55.75 127,-55.75"/>
<text text-anchor="middle" x="73.62" y="-38.45" font-family="Times New Roman,serif" font-size="14.00">Nombre: Sofa</text>
<text text-anchor="middle" x="73.62" y="-22.7" font-family="Times New Roman,serif" font-size="14.00">Cantidad: 1</text>
<text text-anchor="middle" x="10.12" y="-2.45" font-family="Times New Roman,serif" font-size="14.00">Pila</text>
</g>
</g>
</svg>
